HIERARCHY
ROOT Hips
{
	OFFSET 0.000000 0.000000 0.000000 
	CHANNELS 6 Xposition Yposition Zposition Zrotation Yrotation Xrotation
	JOINT LeftUpLeg
	{
		OFFSET 1.363060 -1.794630 0.839290 
		CHANNELS 3 Zrotation Yrotation Xrotation
		JOINT LeftLeg
		{
			OFFSET 2.448110 -6.726130 0.000000 
			CHANNELS 3 Zrotation Yrotation Xrotation
			JOINT LeftFoot
			{
				OFFSET 2.562200 -7.039590 0.000000 
				CHANNELS 3 Zrotation Yrotation Xrotation
				JOINT LeftToeBase
				{
					OFFSET 0.157640 -0.433110 2.322550 
					CHANNELS 3 Zrotation Yrotation Xrotation
					End Site
					{
						OFFSET 0.000000 0.000000 0.000000 
					}
				}
			}
		}
	}
	JOINT RightUpLeg
	{
		OFFSET -1.305520 -1.794630 0.839290 
		CHANNELS 3 Zrotation Yrotation Xrotation
		JOINT RightLeg
		{
			OFFSET -2.542530 -6.985550 0.000000 
			CHANNELS 3 Zrotation Yrotation Xrotation
			JOINT RightFoot
			{
				OFFSET -2.568260 -7.056230 0.000000 
				CHANNELS 3 Zrotation Yrotation Xrotation
				JOINT RightToeBase
				{
					OFFSET -0.164730 -0.452590 2.363150 
					CHANNELS 3 Zrotation Yrotation Xrotation
					End Site
					{
						OFFSET 0.000000 0.000000 0.000000 
					}
				}
			}
		}
	}
	JOINT Spine
	{
		OFFSET 0.028270 2.035590 -0.193380 
		CHANNELS 3 Zrotation Yrotation Xrotation
		JOINT Spine1
		{
			OFFSET 0.056720 2.048850 -0.042750 
			CHANNELS 3 Zrotation Yrotation Xrotation
			JOINT Neck1
			{
				OFFSET -0.054170 1.746240 0.172020 
				CHANNELS 3 Zrotation Yrotation Xrotation
				JOINT Head
				{
					OFFSET 0.104070 1.761360 -0.123970 
					CHANNELS 3 Zrotation Yrotation Xrotation
					End Site
					{
						OFFSET 0.000000 0.000000 0.000000 
					}
				}
			}
			JOINT LeftArm
			{
				OFFSET 3.362410 1.200890 -0.311210 
				CHANNELS 3 Zrotation Yrotation Xrotation
				JOINT LeftForeArm
				{
					OFFSET 4.983000 -0.000000 -0.000000 
					CHANNELS 3 Zrotation Yrotation Xrotation
					JOINT LeftHand
					{
						OFFSET 3.483560 -0.000000 -0.000000 
						CHANNELS 3 Zrotation Yrotation Xrotation
						JOINT LeftHandIndex1
						{
							OFFSET 0.715260 -0.000000 -0.000000 
							CHANNELS 3 Zrotation Yrotation Xrotation
							End Site
							{
								OFFSET 0.000000 0.000000 0.000000 
							}
						}
					}
				}
			}
			JOINT RightArm
			{
				OFFSET -3.136600 1.374050 -0.404650 
				CHANNELS 3 Zrotation Yrotation Xrotation
				JOINT RightForeArm
				{
					OFFSET -5.241900 -0.000000 -0.000000 
					CHANNELS 3 Zrotation Yrotation Xrotation
					JOINT RightHand
					{
						OFFSET -3.444170 -0.000000 -0.000000 
						CHANNELS 3 Zrotation Yrotation Xrotation
						JOINT RightHandIndex1
						{
							OFFSET -0.622530 -0.000000 -0.000000 
							CHANNELS 3 Zrotation Yrotation Xrotation
							End Site
							{
								OFFSET 0.000000 0.000000 0.000000 
							}
						}
					}
				}
			}
		}
	}
}
MOTION
Frames: 6
Frame Time: 0.041667
3.111277 17.516078 35.440273 -161.500481 -88.400548 178.018497 -7.250739 -1.659094 0.727346 -4.683861 -0.791019 3.467785 -0.043984 6.910767 24.239297 0.000000 0.000000 0.000000 31.033476 24.188089 -13.890822 5.187502 -10.938030 18.857259 3.848722 -16.090906 0.267942 -0.100600 -2.045800 5.632100 0.522854 1.086690 -4.561547 -3.176563 0.257240 8.955960 12.645194 -3.303142 11.551350 3.282600 -0.136900 12.026100 -72.228878 0.445027 58.157414 13.410646 -17.578230 -3.221451 -1.803019 -3.287741 -39.119639 -7.125000 0.000000 0.000000 76.388863 -1.382774 44.563063 -15.085728 17.762801 -3.159586 1.343518 1.179843 -8.536398 7.125000 0.000000 0.000000 
3.112723 17.515855 35.441051 -161.466789 -88.444075 177.995729 -7.252019 -1.658586 0.725596 -4.683912 -0.790027 3.467228 -0.044047 6.911786 24.238927 0.000000 0.000000 0.000000 31.005633 24.158771 -13.945372 5.180651 -10.965768 18.914341 3.842797 -16.067685 0.239471 -0.104600 -2.085200 5.741300 0.483768 1.167364 -4.552866 -3.217819 0.289184 8.965733 12.960228 -3.639640 11.255706 3.453000 -0.287200 11.848400 -71.697665 0.511652 59.201151 13.604728 -17.887836 -3.325974 -1.745160 -3.351546 -39.275200 -7.125000 0.000000 0.000000 76.224006 -1.598834 44.016219 -15.249372 18.009172 -3.229971 1.320984 1.222932 -8.866540 7.125000 0.000000 0.000000 
3.114837 17.514743 35.440829 -162.026516 -88.469781 178.540175 -7.250332 -1.659158 0.727870 -4.683830 -0.791120 3.467886 -0.044734 6.910693 24.239350 0.000000 0.000000 0.000000 30.971326 24.164300 -13.970576 5.170450 -10.997695 18.985739 3.838876 -16.048490 0.208514 -0.103000 -2.069400 5.697400 0.499546 1.119146 -4.538474 -3.015447 0.260865 9.020482 13.284438 -3.779218 11.012226 3.638200 -0.346900 11.704700 -71.417880 0.548800 59.741213 13.762341 -18.137128 -3.406381 -1.653488 -3.350367 -39.436708 -7.125000 0.000000 0.000000 75.935813 -1.905912 44.687357 -15.608198 18.471927 -3.392032 1.321100 1.318073 -10.281298 7.125000 0.000000 0.000000 
3.116729 17.513074 35.439494 -162.132310 -88.502980 178.632575 -7.251444 -1.658727 0.726350 -4.683870 -0.790227 3.467396 -0.044907 6.911619 24.239013 0.000000 0.000000 0.000000 30.967156 24.146242 -14.003200 5.160397 -11.029889 19.057621 3.843471 -16.056253 0.174712 -0.104000 -2.079400 5.725300 0.505598 1.079436 -4.529182 -2.863806 0.239196 9.038275 13.599300 -3.982085 10.764577 3.807200 -0.438000 11.546300 -70.916869 0.707436 60.598514 14.076420 -18.616518 -3.570302 -1.546957 -3.380322 -40.035802 -7.125000 0.000000 0.000000 75.511240 -2.282616 45.165945 -15.997604 18.981732 -3.560791 1.293757 1.386515 -11.335045 7.125000 0.000000 0.000000 
3.118509 17.511739 35.438937 -162.356478 -88.524052 178.847248 -7.251858 -1.658547 0.725778 -4.683880 -0.789829 3.467193 -0.045208 6.912041 24.238866 0.000000 0.000000 0.000000 30.954309 24.135609 -14.037929 5.150493 -11.063823 19.133529 3.838355 -16.033942 0.138494 -0.106100 -2.100600 5.783600 0.504901 1.074024 -4.516763 -2.724594 0.232443 9.075781 13.930895 -4.203343 10.508787 3.981700 -0.534900 11.397800 -70.449733 0.823275 61.400296 14.367875 -19.054613 -3.724602 -1.457334 -3.395243 -40.432553 -7.125000 0.000000 0.000000 75.155663 -2.629361 45.516897 -16.370449 19.469743 -3.731018 1.275197 1.456956 -12.341364 7.125000 0.000000 0.000000 
3.120178 17.510404 35.438381 -162.504048 -88.537923 178.983643 -7.252900 -1.658148 0.724355 -4.683917 -0.788986 3.466732 -0.045385 6.912916 24.238547 0.000000 0.000000 0.000000 30.951104 24.117612 -14.066956 5.141250 -11.094264 19.204039 3.831077 -16.006224 0.109438 -0.107800 -2.116800 5.828700 0.505962 1.073970 -4.503711 -2.573334 0.229126 9.117851 14.265308 -4.431414 10.260938 4.150300 -0.633500 11.258000 -69.969373 0.956510 62.183451 14.699017 -19.542928 -3.901756 -1.369371 -3.399989 -40.827138 -7.125000 0.000000 0.000000 74.763911 -3.003954 45.903937 -16.784627 20.005246 -3.922581 1.252583 1.526315 -13.318026 7.125000 0.000000 0.000000 
